<?xml version="1.0" standalone="no"?>
<!DOCTYPE svg PUBLIC "-//W3C//DTD SVG 20010904//EN"
 "http://www.w3.org/TR/2001/REC-SVG-20010904/DTD/svg10.dtd">
<svg version="1.0" xmlns="http://www.w3.org/2000/svg"
 width="260.000000pt" height="260.000000pt" viewBox="0 0 260.000000 260.000000"
 preserveAspectRatio="xMidYMid meet">
<metadata>
Created by potrace 1.14, written by Peter Selinger 2001-2017
</metadata>
<g transform="translate(0.000000,260.000000) scale(0.100000,-0.100000)"
fill="#000000" stroke="none">
<path d="M936 2149 c-32 -11 -69 -27 -82 -35 -13 -9 -28 -13 -34 -9 -12 7 -9
-32 9 -115 6 -31 -6 -128 -36 -280 -4 -19 -6 -60 -5 -90 1 -38 -21 -155 -74
-384 -42 -181 -77 -337 -79 -345 -2 -9 -11 -47 -20 -85 -9 -38 -14 -80 -11
-92 4 -13 2 -26 -4 -29 -13 -8 -1 -87 16 -100 23 -17 32 -60 31 -134 -2 -82
11 -89 32 -18 19 62 35 55 32 -14 -3 -64 14 -95 46 -85 12 4 24 17 27 30 4 17
13 23 33 23 18 0 35 10 50 29 l24 29 20 -28 c17 -22 28 -27 62 -27 65 0 164
25 257 63 426 175 477 198 595 275 92 59 177 146 195 201 16 49 14 54 -79 185
-75 106 -153 190 -196 210 -19 9 -35 20 -35 24 0 4 25 29 55 55 31 28 55 57
55 68 0 18 -4 17 -59 -11 -70 -35 -135 -51 -164 -41 -17 6 -8 16 60 64 87 60
137 113 155 165 7 19 19 32 29 32 21 0 44 -26 30 -34 -5 -3 -7 -14 -4 -25 3
-10 -2 -32 -11 -49 -16 -32 -13 -42 16 -42 13 0 18 8 19 28 0 15 2 36 4 47 15
85 8 175 -15 175 -4 0 -21 24 -38 53 -63 111 -202 223 -321 258 -40 12 -42 13
-20 22 l24 9 -30 13 c-59 24 -83 26 -81 7 1 -12 -7 -17 -24 -18 -14 -1 -39 -5
-56 -8 -20 -4 -43 0 -60 9 -15 7 -30 12 -33 10 -4 -2 -35 -6 -71 -10 -35 -3
-67 -8 -71 -11 -4 -2 -21 7 -38 21 -40 35 -57 37 -125 14z m717 -271 c9 -5 17
-15 17 -22 0 -11 -16 -10 -80 6 -44 11 -77 25 -74 30 7 11 110 0 137 -14z
m-208 -12 c102 -11 236 -71 219 -97 -4 -8 -10 -7 -17 0 -17 17 -24 13 -37 -18
-6 -16 -28 -41 -48 -55 -20 -14 -30 -26 -21 -26 8 0 30 15 49 33 30 28 33 30
28 10 -4 -13 -1 -26 5 -30 13 -8 57 42 57 67 0 23 13 32 33 24 28 -10 -13 -99
-68 -147 -35 -30 -175 -96 -175 -82 0 2 32 25 70 51 39 26 70 51 70 55 0 5 -1
9 -3 9 -4 0 -154 -64 -229 -99 -65 -29 -68 -29 -68 -10 0 19 -4 20 -67 14 -38
-4 -79 -8 -93 -9 l-25 -1 0 100 c0 88 3 104 23 132 31 44 80 71 143 81 57 8
72 8 154 -2z m227 -653 c38 -10 55 -19 52 -28 -4 -10 -23 -9 -92 6 -129 28
-132 29 -132 39 0 13 100 3 172 -17z m-147 -37 c127 -13 190 -39 201 -82 9
-35 -2 -43 -182 -133 -283 -141 -491 -210 -547 -179 -14 7 -17 18 -12 55 3 25
7 48 9 52 2 3 7 30 11 60 4 30 9 63 11 75 2 12 8 46 14 76 6 30 13 57 18 61 4
4 68 10 142 14 74 3 136 8 138 9 4 4 127 -1 197 -8z m284 -119 c-2 -2 -21 -13
-42 -25 -39 -22 -39 -19 -4 31 18 26 21 27 35 13 9 -8 14 -17 11 -19z m136
-85 l24 -19 -22 -31 c-31 -43 -144 -111 -307 -185 -60 -27 -116 -47 -96 -34
10 7 73 48 140 92 66 44 146 105 176 136 30 31 57 56 58 57 2 1 14 -6 27 -16z"/>
</g>
</svg>
