<svg xmlns="http://www.w3.org/2000/svg" width="90" height="90" viewBox="0 0 90 90">
	<path d="M 75.492 0.5 C 75.313 0.191 74.983 0 74.626 0 H 15.375 c -0.357 0 -0.688 0.191 -0.866 0.5 s -0.178 0.691 0 1 c 2.2 3.802 3.363 8.147 3.363 12.566 v 7.728 c 0 13.242 9.54 24.291 22.106 26.655 c -0.008 2.174 -0.062 4.257 -0.163 6.208 l -3.518 3.518 c -1.031 1.03 -1.599 2.4 -1.599 3.859 c 0 1.458 0.568 2.828 1.599 3.858 l 1.764 1.764 c -2.542 10.074 -7.071 12.294 -11.08 14.24 c -2.926 1.42 -5.69 2.762 -6.767 6.848 c -0.079 0.3 -0.015 0.619 0.175 0.865 C 20.577 89.856 20.87 90 21.18 90 h 47.64 c 0.311 0 0.603 -0.144 0.792 -0.39 s 0.254 -0.565 0.175 -0.865 c -1.078 -4.086 -3.842 -5.428 -6.768 -6.848 c -4.009 -1.945 -8.539 -4.165 -11.081 -14.24 l 1.764 -1.764 c 1.031 -1.03 1.599 -2.4 1.599 -3.859 c 0 -1.458 -0.567 -2.828 -1.599 -3.858 l -3.518 -3.518 c -0.101 -1.95 -0.155 -4.034 -0.162 -6.208 c 12.566 -2.363 22.105 -13.413 22.105 -26.655 v -7.728 c 0 -4.419 1.163 -8.765 3.363 -12.566 C 75.671 1.191 75.671 0.81 75.492 0.5 z" fill="#222"/>
</svg>
