<?xml version="1.0" encoding="UTF-8" standalone="no"?>
<!-- Created with Inkscape (http://www.inkscape.org/) -->

<svg
   width="1023.9999"
   height="1023.9999"
   viewBox="0 0 270.93331 270.93331"
   version="1.1"
   id="svg1"
   xmlns="http://www.w3.org/2000/svg"
   xmlns:svg="http://www.w3.org/2000/svg">
  <defs
     id="defs1" />
  <g
     id="layer1">
    <path
       id="path1055"
       style="color:#000000;font-size:286.02px;fill:#222222;fill-opacity:1;stroke:none;stroke-width:5.1843;-inkscape-stroke:none"
       d="m 135.46668,21.046665 -36.257038,109.553075 12.125988,8.59607 1.00757,-3.07802 23.13568,-70.593106 9.9065,30.074653 h 14.89798 z m -110.212652,79.383495 94.393812,67.0987 1.4331,-1.01543 10.63947,-7.5417 L 68.042927,113.9354 H 99.59205 l 4.71166,-13.50524 z m 103.515362,0 -4.31989,13.50524 h 78.46016 l -25.63681,18.15834 4.67794,13.78059 2.68342,-1.91352 61.03997,-43.53065 z m 24.18636,18.08937 23.91173,72.77571 -25.3303,-18.09923 -11.74686,8.60459 64.01396,45.43701 -2.23541,-6.75643 -33.73107,-101.96165 z m 4.25804,27.78327 -63.116045,44.98706 9.681575,-29.21817 -12.113333,-8.58578 -24.538769,73.75529 5.967617,-4.22865 88.796885,-62.93228 z" />
    <circle
       style="fill:none;stroke:#222222;stroke-width:15;stroke-linecap:round;stroke-dashoffset:11.3386;stroke-opacity:1"
       id="path1"
       cy="135.46666"
       cx="135.46667"
       r="114.41999" />
  </g>
</svg>
