<?xml version="1.0" encoding="UTF-8" standalone="no"?>
<svg
   viewBox="0 0 450 450"
   width="450"
   height="450"
   version="1.1"
   id="svg1"
   xmlns="http://www.w3.org/2000/svg"
   xmlns:svg="http://www.w3.org/2000/svg">
  <defs
     id="defs1" />
  <path
     d="m 424.885,16.03 c -0.624,0.11 -1.235,0.287 -1.822,0.526 l -92.748,30.821 c -1.403,0.454 -2.664,1.263 -3.661,2.349 l -195.652,214.21 -41.538,-28.99 c -3.281,-2.393 -7.811,-2.06 -10.708,0.786 l -20.899,20.096 c -3.238,3.252 -3.238,8.509 0,11.761 l 37.099,37.091 -42.85,54.336 C 32.16,359.877 16.06,376.237 16.06,396.383 16.06,417.055 33.005,434 53.678,434 c 20.146,0 36.505,-16.1 37.358,-36.054 l 54.336,-42.834 37.091,37.091 c 3.251,3.238 8.509,3.238 11.761,0 l 20.113,-20.899 c 2.82,-2.909 3.148,-7.422 0.777,-10.708 l -28.99,-41.538 214.21,-195.66 c 1.086,-0.997 1.896,-2.258 2.349,-3.662 l 30.829,-92.739 c 0.89,-2.665 0.371,-5.6 -1.379,-7.799 -1.725,-2.213 -4.452,-3.405 -7.248,-3.168 z"
     id="path1"
     style="fill:#222222;fill-opacity:1" />
</svg>
