<?xml version="1.0" encoding="UTF-8" standalone="no"?>
<!-- Created with Inkscape (http://www.inkscape.org/) -->

<svg
   width="200"
   height="200"
   viewBox="0 0 52.916665 52.916667"
   version="1.1"
   id="svg1"
   xml:space="preserve"
   xmlns="http://www.w3.org/2000/svg"
   xmlns:svg="http://www.w3.org/2000/svg"><defs
     id="defs1" /><g
     id="layer1"><path
       style="fill:#222222;fill-opacity:1;stroke-width:0.999999"
       d="M 2.6458333,47.522723 25.495998,21.762708 25.499058,7.6282352 30.898399,5.5959368 c 0.04655,0.048407 0.465206,2.0281558 0.93031,4.3993649 0.912273,4.6509503 1.547778,6.3864253 2.887129,7.8843393 1.638138,1.832077 3.361558,2.485171 9.231069,3.498184 1.747557,0.3016 3.463004,0.726734 3.463004,0.726734 l -2.71562,5.573506 H 30.889723 L 5.5361339,50.270833 Z M 39.413617,19.209446 C 36.645333,18.282803 34.583198,16.096164 33.779052,13.23468 32.655005,9.2348306 35.007086,4.6066316 38.917076,3.1245709 c 1.909272,-0.7236931 4.936536,-0.6139561 6.66302,0.241528 1.536877,0.761546 3.224052,2.4662497 3.977755,4.019111 0.849008,1.7492067 0.955419,4.8028111 0.234987,6.7432191 -1.516367,4.084216 -6.324877,6.438157 -10.379221,5.081017 z"
       id="path1" /></g></svg>
