<svg id="svg" xmlns="http://www.w3.org/2000/svg" viewBox="0 0 352.62 352.62">
<path d="m337.222 22.952c-15.912-8.568-33.66 7.956-44.064 17.748-23.867 23.256-44.063 50.184-66.708 74.664-25.092 26.928-48.348 53.856-74.052 80.173-14.688 14.688-30.6 30.6-40.392 48.96-22.032-21.421-41.004-44.677-65.484-63.648-17.748-13.464-47.124-23.256-46.512 9.18 1.224 42.229 38.556 87.517 66.096 116.28 11.628 12.24 26.928 25.092 44.676 25.704 21.42 1.224 43.452-24.48 56.304-38.556 22.645-24.48 41.005-52.021 61.812-77.112 26.928-33.048 54.468-65.485 80.784-99.145 16.524-20.808 68.544-72.217 27.54-94.248"/>
</svg>
