<svg width="840" height="840" version="1.1" viewBox="0 0 840 840" xmlns="http://www.w3.org/2000/svg"><g fill="none" stroke="#fff" stroke-linecap="round" stroke-linejoin="round" stroke-width="32"><circle cx="420" cy="420" r="384"/><path d="m176 236h36.822c15.057 0 27.178 11.723 27.178 26.286v315.43c0 14.562-12.122 26.286-27.178 26.286h-36.822" stroke-miterlimit="7" style="paint-order:markers fill stroke"/><path d="m304 236h-36.822c-15.057 0-27.178 11.723-27.178 26.286v315.43c0 14.562 12.122 26.286 27.178 26.286h36.822" stroke-miterlimit="7" style="paint-order:markers fill stroke"/></g><path d="m694.88 249.51c-17.689-9.5248-37.419 8.8448-48.985 19.73-26.533 25.853-48.984 55.789-74.158 83-27.894 29.935-53.747 59.87-82.32 89.128-16.328 16.328-34.018 34.018-44.903 54.428-24.493-23.814-45.583-49.666-72.797-70.756-19.73-14.968-52.386-25.853-51.706 10.205 1.3607 46.945 42.862 97.288 73.478 129.26 12.926 13.607 29.935 27.894 49.666 28.574 23.812 1.3607 48.305-27.214 62.592-42.862 25.174-27.214 45.584-57.83 68.715-85.72 29.935-36.738 60.551-72.798 89.808-110.22 18.37-23.132 76.199-80.28 30.616-104.78" fill="#fff" stroke-width="8"/></svg>
